# xmcd
#
# Track frame offsets:
#	150
#	18310
#	35805
#	58112
#	88455
#	104437
#	128960
#	136132
#	157797
#	178840
#
# Disc length: 2590 seconds
#
# Revision: 2
# Processed by: cddbd v1.5.1PL0 Copyright (c) Steve Scherf et al.
# Submitted via: dBpowerAMP V4.0
#
DISCID=890a1c0a
DTITLE=MarcosLoya - LoveIsTheReason;SpindletopSPT136CD
DYEAR=1991
DGENRE=blues
TTITLE0=LoveIsTheReason(1991,MarcosLoya)
TTITLE1=YoTeQuiero(1991,MarcosLoya)
TTITLE2=SkinsAndStrings(1991,MarcosLoya)
TTITLE3=MariaDulce(1991,MarcosLoya)
TTITLE4=Peru(MLoya&JoeRotondiJr;1991,MarcosLoya)
TTITLE5=RainWeatherman(1991,MarcosLoya)
TTITLE6=Teresita(1991,MarcosLoya)
TTITLE7=QueenCalafia(1991,MarcosLoya)
TTITLE8=LaLlorona(1991,MarcosLoya)
TTITLE9=FromHeartToHands(1991,MarcosLoya)
EXTD=more info\nMillenniumMusicProjectFormat, syntax as follows:\nTitle{Subtitle}[info](Lyricist;Composer;Date,Artist,Location)[info]\ncorrections to: windking3@yahoo.com
EXTT0=
EXTT1=
EXTT2=
EXTT3=
EXTT4=
EXTT5=
EXTT6=
EXTT7=
EXTT8=
EXTT9=
PLAYORDER=
